<?xml version="1.0" standalone="no"?>
<!DOCTYPE svg PUBLIC "-//W3C//DTD SVG 20010904//EN"
 "http://www.w3.org/TR/2001/REC-SVG-20010904/DTD/svg10.dtd">
<svg version="1.0" xmlns="http://www.w3.org/2000/svg"
 width="3464.000000pt" height="3464.000000pt" viewBox="0 0 3464.000000 3464.000000"
 preserveAspectRatio="xMidYMid meet">

<g transform="translate(0.000000,3464.000000) scale(0.100000,-0.100000)"
fill="#000000" stroke="none">
<path d="M0 17320 l0 -17320 17320 0 17320 0 0 17320 0 17320 -17320 0 -17320
0 0 -17320z m16828 3363 l-3 -368 -1192 -3 -1193 -2 0 -295 0 -295 963 -2 962
-3 3 -362 2 -363 -965 0 -965 0 2 -297 3 -298 1193 -3 1192 -2 0 -365 0 -365
-1562 2 -1563 3 -3 1680 c-1 924 0 1686 3 1693 3 9 326 12 1565 12 l1560 0 -2
-367z m3620 0 l-3 -368 -1192 -3 -1193 -2 0 -295 0 -295 960 0 960 0 0 -365 0
-365 -957 -2 -958 -3 0 -295 0 -295 1193 -3 1192 -2 0 -365 0 -365 -1565 0
-1565 0 0 1695 0 1695 1565 0 1565 0 -2 -367z m1212 -298 l0 -665 338 0 337 0
29 37 c16 20 117 140 225 268 108 128 344 410 526 629 l329 396 378 0 378 0 0
-131 0 -131 -77 -91 c-43 -50 -88 -103 -100 -117 -11 -14 -134 -160 -273 -325
-319 -380 -298 -355 -491 -585 -89 -107 -185 -221 -212 -252 -27 -32 -47 -63
-44 -70 3 -7 107 -134 232 -283 263 -313 606 -722 817 -974 l148 -176 0 -127
0 -128 -379 0 -379 0 -69 83 c-38 45 -206 246 -373 446 -168 201 -386 462
-485 580 l-181 216 -334 0 -335 0 -3 -663 -2 -662 -363 2 -362 3 -3 1680 c-1
924 0 1686 3 1693 3 9 86 12 365 12 l360 0 0 -665z m5596 -140 c109 -33 180
-115 224 -258 48 -158 59 -195 84 -279 14 -49 37 -125 50 -170 14 -46 45 -151
70 -234 25 -84 46 -156 46 -162 0 -10 -25 -19 -170 -62 -41 -12 -88 -27 -103
-32 -16 -7 -32 -7 -36 -2 -5 5 -18 43 -31 84 -32 110 -70 241 -81 275 -14 48
-88 294 -109 365 -49 166 -42 152 -76 145 -30 -5 -262 -73 -454 -133 -52 -16
-96 -34 -98 -41 -3 -9 29 -129 58 -211 5 -14 27 -90 50 -170 23 -80 45 -156
50 -170 5 -14 23 -72 40 -130 17 -58 36 -117 41 -132 20 -50 9 -68 -51 -88
-100 -33 -241 -72 -245 -68 -4 3 -97 311 -186 613 -12 39 -36 120 -54 180 -18
61 -43 144 -55 185 -12 41 -30 102 -41 134 -25 77 -24 93 4 99 12 2 63 17 112
32 111 33 206 61 265 79 84 24 295 88 360 108 194 60 255 68 336 43z m-10857
-3676 c148 -24 270 -90 378 -201 110 -115 164 -227 183 -378 6 -54 10 -547 10
-1382 l0 -1298 -355 0 -355 0 0 524 c0 468 -2 525 -16 530 -20 8 -1808 8
-1828 0 -14 -5 -16 -62 -16 -530 l0 -524 -350 0 -350 0 0 1303 c0 844 4 1332
10 1386 36 283 253 514 535 569 73 14 2069 15 2154 1z m1813 -6 c13 -17 92
-149 150 -253 14 -25 93 -162 175 -305 83 -143 226 -393 320 -555 193 -336
520 -901 598 -1035 29 -49 67 -116 85 -148 27 -48 35 -56 45 -45 7 7 57 90
110 183 113 197 128 222 448 775 132 228 292 505 355 615 63 110 140 243 170
295 30 52 67 118 83 145 15 28 66 115 112 195 l85 145 393 3 c216 1 396 -1
401 -6 4 -4 -136 -258 -313 -563 -399 -688 -668 -1153 -952 -1644 -120 -209
-222 -384 -227 -390 -4 -5 -21 -35 -37 -65 -17 -30 -90 -158 -163 -285 -73
-126 -144 -249 -158 -272 l-24 -43 -293 0 -293 0 -148 258 c-81 141 -193 336
-249 432 -56 96 -162 279 -235 405 -73 127 -172 298 -220 380 -48 83 -146 251
-217 375 -72 124 -256 441 -409 705 -397 687 -403 698 -398 707 3 4 182 8 398
8 362 0 394 -1 408 -17z m6853 -338 l0 -350 -1153 -3 -1152 -2 2 -283 3 -282
925 -5 925 -5 0 -350 0 -350 -925 -5 -925 -5 0 -280 0 -280 1150 -5 1150 -5 3
-352 2 -353 -1510 0 -1510 0 0 1628 c0 896 3 1632 7 1635 3 4 682 6 1507 5
l1501 -3 0 -350z"/>
<path d="M14400 15470 l0 -400 928 2 927 3 3 398 2 397 -930 0 -930 0 0 -400z"/>
</g>
</svg>
